# xmcd
#
# Track frame offsets:
#	150
#	9420
#	44362
#	77175
#	104588
#	110781
#	135749
#	180144
#
# Disc length: 2857 seconds
#
# Revision: 1
# Processed by: cddbd v1.5.2PL0 Copyright (c) Steve Scherf et al.
# Submitted via: CDmax 1.9
#
DISCID=620b2708
DTITLE=Little Axe - One Man - One Night
DYEAR=2016
DGENRE=Blues
TTITLE0=Introlude
TTITLE1=My Only Friend
TTITLE2=Grinning In Your Face
TTITLE3=Seeing Red
TTITLE4=You Gotta Work
TTITLE5=Tear The System Down
TTITLE6=There You Are
TTITLE7=On Your Way Down
EXTD=
EXTT0=
EXTT1=
EXTT2=
EXTT3=
EXTT4=
EXTT5=
EXTT6=
EXTT7=
PLAYORDER=
